<svg width="240" height="55" viewBox="0 0 240 55" fill="none" xmlns="http://www.w3.org/2000/svg">
<rect width="240" height="55" fill="#D7B399"/>
<path d="M35.784 33.096C34.6747 33.096 33.672 32.8507 32.776 32.36C31.8907 31.8693 31.192 31.192 30.68 30.328C30.1787 29.4533 29.928 28.4773 29.928 27.4C29.928 26.3227 30.1787 25.352 30.68 24.488C31.192 23.6133 31.896 22.9307 32.792 22.44C33.688 21.9493 34.6907 21.704 35.8 21.704C36.632 21.704 37.4 21.8427 38.104 22.12C38.808 22.3973 39.4053 22.8027 39.896 23.336L39.144 24.088C38.2693 23.2027 37.1653 22.76 35.832 22.76C34.9467 22.76 34.1413 22.9627 33.416 23.368C32.6907 23.7733 32.12 24.328 31.704 25.032C31.2987 25.736 31.096 26.5253 31.096 27.4C31.096 28.2747 31.2987 29.064 31.704 29.768C32.12 30.472 32.6907 31.0267 33.416 31.432C34.1413 31.8373 34.9467 32.04 35.832 32.04C37.176 32.04 38.28 31.592 39.144 30.696L39.896 31.448C39.4053 31.9813 38.8027 32.392 38.088 32.68C37.384 32.9573 36.616 33.096 35.784 33.096ZM54.4531 21.8V33H53.3171V24.04L48.9171 31.576H48.3571L43.9571 24.088V33H42.8211V21.8H43.7971L48.6611 30.104L53.4771 21.8H54.4531ZM63.6194 33.096C62.51 33.096 61.502 32.8507 60.5954 32.36C59.6994 31.8587 58.9954 31.176 58.4834 30.312C57.982 29.448 57.7314 28.4773 57.7314 27.4C57.7314 26.3227 57.982 25.352 58.4834 24.488C58.9954 23.624 59.6994 22.9467 60.5954 22.456C61.502 21.9547 62.51 21.704 63.6194 21.704C64.7287 21.704 65.726 21.9493 66.6114 22.44C67.5074 22.9307 68.2114 23.6133 68.7234 24.488C69.2354 25.352 69.4914 26.3227 69.4914 27.4C69.4914 28.4773 69.2354 29.4533 68.7234 30.328C68.2114 31.192 67.5074 31.8693 66.6114 32.36C65.726 32.8507 64.7287 33.096 63.6194 33.096ZM63.6194 32.04C64.5047 32.04 65.3047 31.8427 66.0194 31.448C66.734 31.0427 67.294 30.488 67.6994 29.784C68.1047 29.0693 68.3074 28.2747 68.3074 27.4C68.3074 26.5253 68.1047 25.736 67.6994 25.032C67.294 24.3173 66.734 23.7627 66.0194 23.368C65.3047 22.9627 64.5047 22.76 63.6194 22.76C62.734 22.76 61.9287 22.9627 61.2034 23.368C60.4887 23.7627 59.9234 24.3173 59.5074 25.032C59.102 25.736 58.8994 26.5253 58.8994 27.4C58.8994 28.2747 59.102 29.0693 59.5074 29.784C59.9234 30.488 60.4887 31.0427 61.2034 31.448C61.9287 31.8427 62.734 32.04 63.6194 32.04ZM79.9685 22.824H76.0325V33H74.8645V22.824H70.9285V21.8H79.9685V22.824ZM86.7187 21.8C88.1481 21.8 89.2681 22.1413 90.0787 22.824C90.8894 23.5067 91.2947 24.4453 91.2947 25.64C91.2947 26.8347 90.8894 27.7733 90.0787 28.456C89.2681 29.128 88.1481 29.464 86.7187 29.464H83.7107V33H82.5267V21.8H86.7187ZM86.6867 28.424C87.7961 28.424 88.6441 28.184 89.2307 27.704C89.8174 27.2133 90.1107 26.5253 90.1107 25.64C90.1107 24.7333 89.8174 24.04 89.2307 23.56C88.6441 23.0693 87.7961 22.824 86.6867 22.824H83.7107V28.424H86.6867ZM102.13 31.976V33H94.2099V21.8H101.89V22.824H95.3939V26.808H101.186V27.816H95.3939V31.976H102.13ZM112.565 22.824H108.629V33H107.461V22.824H103.525V21.8H112.565V22.824ZM119.811 25.8C121.134 25.8 122.142 26.0987 122.835 26.696C123.539 27.2933 123.891 28.168 123.891 29.32C123.891 30.5253 123.518 31.4427 122.771 32.072C122.035 32.6907 120.968 33 119.571 33H115.123V21.8H116.291V25.8H119.811ZM119.539 32.056C120.574 32.056 121.358 31.8267 121.891 31.368C122.435 30.9093 122.707 30.232 122.707 29.336C122.707 27.6187 121.651 26.76 119.539 26.76H116.291V32.056H119.539ZM143.262 21.8V33H142.126V24.04L137.726 31.576H137.166L132.766 24.088V33H131.63V21.8H132.606L137.47 30.104L142.286 21.8H143.262ZM152.428 33.096C151.319 33.096 150.311 32.8507 149.404 32.36C148.508 31.8587 147.804 31.176 147.292 30.312C146.791 29.448 146.54 28.4773 146.54 27.4C146.54 26.3227 146.791 25.352 147.292 24.488C147.804 23.624 148.508 22.9467 149.404 22.456C150.311 21.9547 151.319 21.704 152.428 21.704C153.537 21.704 154.535 21.9493 155.42 22.44C156.316 22.9307 157.02 23.6133 157.532 24.488C158.044 25.352 158.3 26.3227 158.3 27.4C158.3 28.4773 158.044 29.4533 157.532 30.328C157.02 31.192 156.316 31.8693 155.42 32.36C154.535 32.8507 153.537 33.096 152.428 33.096ZM152.428 32.04C153.313 32.04 154.113 31.8427 154.828 31.448C155.543 31.0427 156.103 30.488 156.508 29.784C156.913 29.0693 157.116 28.2747 157.116 27.4C157.116 26.5253 156.913 25.736 156.508 25.032C156.103 24.3173 155.543 23.7627 154.828 23.368C154.113 22.9627 153.313 22.76 152.428 22.76C151.543 22.76 150.737 22.9627 150.012 23.368C149.297 23.7627 148.732 24.3173 148.316 25.032C147.911 25.736 147.708 26.5253 147.708 27.4C147.708 28.2747 147.911 29.0693 148.316 29.784C148.732 30.488 149.297 31.0427 150.012 31.448C150.737 31.8427 151.543 32.04 152.428 32.04ZM171.581 31.976V35.512H170.477V33H160.701L160.685 35.512H159.581L159.597 31.976H160.157C160.893 31.9333 161.405 31.352 161.693 30.232C161.981 29.1013 162.157 27.5013 162.221 25.432L162.349 21.8H169.901V31.976H171.581ZM163.277 25.544C163.224 27.2507 163.09 28.6587 162.877 29.768C162.674 30.8667 162.328 31.6027 161.837 31.976H168.733V22.824H163.373L163.277 25.544ZM182.396 31.976V33H174.476V21.8H182.156V22.824H175.66V26.808H181.452V27.816H175.66V31.976H182.396ZM194.287 21.8V33H193.119V22.824H187.711L187.583 26.568C187.53 28.1147 187.402 29.3627 187.199 30.312C187.007 31.2507 186.708 31.9547 186.303 32.424C185.898 32.8827 185.359 33.112 184.687 33.112C184.399 33.112 184.1 33.0747 183.791 33L183.887 31.944C184.068 31.9867 184.244 32.008 184.415 32.008C184.884 32.008 185.263 31.8213 185.551 31.448C185.85 31.0747 186.074 30.4987 186.223 29.72C186.372 28.9307 186.474 27.8907 186.527 26.6L186.687 21.8H194.287ZM198.546 21.8H199.714V31.08L206.882 21.8H207.954V33H206.786V23.736L199.618 33H198.546V21.8Z" fill="white"/>
</svg>
