<svg width="85" height="14" viewBox="0 0 85 14" fill="none" xmlns="http://www.w3.org/2000/svg">
<path d="M4.99637 8.878V9.886H8.88437V11.38H4.99637V13H2.06237V11.38H0.316367V9.886H2.06237V0.399999H7.51637C9.23237 0.399999 10.5704 0.759999 11.5304 1.48C12.5024 2.2 12.9884 3.256 12.9884 4.648C12.9884 6.028 12.5024 7.078 11.5304 7.798C10.5704 8.518 9.23237 8.878 7.51637 8.878H4.99637ZM10.0364 4.666C10.0364 4.054 9.81437 3.586 9.37037 3.262C8.93837 2.938 8.31437 2.776 7.49837 2.776H4.99637V6.592H7.49837C8.31437 6.592 8.93837 6.43 9.37037 6.106C9.81437 5.77 10.0364 5.29 10.0364 4.666ZM31.0886 10.354H29.0366V13H26.1926V10.354H19.4066V8.392L25.3466 0.399999H28.4066L22.8986 7.978H26.2826V5.62H29.0366V7.978H31.0886V10.354ZM37.3608 13.216C36.3168 13.216 35.3868 12.958 34.5708 12.442C33.7548 11.926 33.1128 11.182 32.6448 10.21C32.1888 9.226 31.9608 8.056 31.9608 6.7C31.9608 5.344 32.1888 4.18 32.6448 3.208C33.1128 2.224 33.7548 1.474 34.5708 0.957999C35.3868 0.442 36.3168 0.184 37.3608 0.184C38.4048 0.184 39.3348 0.442 40.1508 0.957999C40.9668 1.474 41.6028 2.224 42.0588 3.208C42.5268 4.18 42.7608 5.344 42.7608 6.7C42.7608 8.056 42.5268 9.226 42.0588 10.21C41.6028 11.182 40.9668 11.926 40.1508 12.442C39.3348 12.958 38.4048 13.216 37.3608 13.216ZM37.3608 10.75C38.1288 10.75 38.7288 10.42 39.1608 9.76C39.6048 9.1 39.8268 8.08 39.8268 6.7C39.8268 5.32 39.6048 4.3 39.1608 3.64C38.7288 2.98 38.1288 2.65 37.3608 2.65C36.6048 2.65 36.0048 2.98 35.5608 3.64C35.1288 4.3 34.9128 5.32 34.9128 6.7C34.9128 8.08 35.1288 9.1 35.5608 9.76C36.0048 10.42 36.6048 10.75 37.3608 10.75ZM54.6752 13.216C53.6312 13.216 52.7012 12.958 51.8852 12.442C51.0692 11.926 50.4272 11.182 49.9592 10.21C49.5032 9.226 49.2752 8.056 49.2752 6.7C49.2752 5.344 49.5032 4.18 49.9592 3.208C50.4272 2.224 51.0692 1.474 51.8852 0.957999C52.7012 0.442 53.6312 0.184 54.6752 0.184C55.7192 0.184 56.6492 0.442 57.4652 0.957999C58.2812 1.474 58.9172 2.224 59.3732 3.208C59.8412 4.18 60.0752 5.344 60.0752 6.7C60.0752 8.056 59.8412 9.226 59.3732 10.21C58.9172 11.182 58.2812 11.926 57.4652 12.442C56.6492 12.958 55.7192 13.216 54.6752 13.216ZM54.6752 10.75C55.4432 10.75 56.0432 10.42 56.4752 9.76C56.9192 9.1 57.1412 8.08 57.1412 6.7C57.1412 5.32 56.9192 4.3 56.4752 3.64C56.0432 2.98 55.4432 2.65 54.6752 2.65C53.9192 2.65 53.3192 2.98 52.8752 3.64C52.4432 4.3 52.2272 5.32 52.2272 6.7C52.2272 8.08 52.4432 9.1 52.8752 9.76C53.3192 10.42 53.9192 10.75 54.6752 10.75ZM66.892 13.216C65.848 13.216 64.918 12.958 64.102 12.442C63.286 11.926 62.644 11.182 62.176 10.21C61.72 9.226 61.492 8.056 61.492 6.7C61.492 5.344 61.72 4.18 62.176 3.208C62.644 2.224 63.286 1.474 64.102 0.957999C64.918 0.442 65.848 0.184 66.892 0.184C67.936 0.184 68.866 0.442 69.682 0.957999C70.498 1.474 71.134 2.224 71.59 3.208C72.058 4.18 72.292 5.344 72.292 6.7C72.292 8.056 72.058 9.226 71.59 10.21C71.134 11.182 70.498 11.926 69.682 12.442C68.866 12.958 67.936 13.216 66.892 13.216ZM66.892 10.75C67.66 10.75 68.26 10.42 68.692 9.76C69.136 9.1 69.358 8.08 69.358 6.7C69.358 5.32 69.136 4.3 68.692 3.64C68.26 2.98 67.66 2.65 66.892 2.65C66.136 2.65 65.536 2.98 65.092 3.64C64.66 4.3 64.444 5.32 64.444 6.7C64.444 8.08 64.66 9.1 65.092 9.76C65.536 10.42 66.136 10.75 66.892 10.75ZM79.1088 13.216C78.0648 13.216 77.1348 12.958 76.3188 12.442C75.5028 11.926 74.8608 11.182 74.3928 10.21C73.9368 9.226 73.7088 8.056 73.7088 6.7C73.7088 5.344 73.9368 4.18 74.3928 3.208C74.8608 2.224 75.5028 1.474 76.3188 0.957999C77.1348 0.442 78.0648 0.184 79.1088 0.184C80.1528 0.184 81.0828 0.442 81.8988 0.957999C82.7148 1.474 83.3508 2.224 83.8068 3.208C84.2748 4.18 84.5088 5.344 84.5088 6.7C84.5088 8.056 84.2748 9.226 83.8068 10.21C83.3508 11.182 82.7148 11.926 81.8988 12.442C81.0828 12.958 80.1528 13.216 79.1088 13.216ZM79.1088 10.75C79.8768 10.75 80.4768 10.42 80.9088 9.76C81.3528 9.1 81.5748 8.08 81.5748 6.7C81.5748 5.32 81.3528 4.3 80.9088 3.64C80.4768 2.98 79.8768 2.65 79.1088 2.65C78.3528 2.65 77.7528 2.98 77.3088 3.64C76.8768 4.3 76.6608 5.32 76.6608 6.7C76.6608 8.08 76.8768 9.1 77.3088 9.76C77.7528 10.42 78.3528 10.75 79.1088 10.75Z" fill="#D7B399"/>
</svg>
